<?xml version="1.0" encoding="UTF-8"?>
<!DOCTYPE svg PUBLIC "-//W3C//DTD SVG 1.1//EN" "http://www.w3.org/Graphics/SVG/1.1/DTD/svg11.dtd">
<svg xmlns="http://www.w3.org/2000/svg" version="1.1" width="500px" height="500px" style="shape-rendering:geometricPrecision; text-rendering:geometricPrecision; image-rendering:optimizeQuality; fill-rule:evenodd; clip-rule:evenodd" xmlns:xlink="http://www.w3.org/1999/xlink">
<g><path style="opacity:0.896" fill="#FFFFFF" d="M 55.5,139.5 C 54.1667,139.833 54.1667,140.167 55.5,140.5C 55.3893,141.117 55.056,141.617 54.5,142C 55.9389,142.991 56.9389,144.324 57.5,146C 59.8281,148.139 62.8281,149.306 66.5,149.5C 73.3386,151.838 80.0052,154.671 86.5,158C 95.9438,165.758 100.277,175.425 99.5,187C 97.7691,204.717 88.6024,216.55 72,222.5C 63.1016,222.941 53.9349,222.441 44.5,221C 36.6518,219.688 28.9852,218.188 21.5,216.5C 21.3354,213.482 21.502,210.482 22,207.5C 23.7583,206.531 24.2583,205.364 23.5,204C 25.2108,199.759 27.0441,195.593 29,191.5C 29.3333,192.167 29.6667,192.833 30,193.5C 32,193.5 34,193.5 36,193.5C 39.6667,195.167 43.3333,196.833 47,198.5C 52.6309,198.573 58.4642,198.406 64.5,198C 66.8333,196.333 69.1667,194.667 71.5,193C 71.5,190.667 71.5,188.333 71.5,186C 70.8366,184.482 69.8366,183.315 68.5,182.5C 68.1667,181.167 67.8333,181.167 67.5,182.5C 66.5,181.833 65.5,181.167 64.5,180.5C 64.1583,179.662 63.4916,179.328 62.5,179.5C 62.1583,178.662 61.4916,178.328 60.5,178.5C 60.1667,177.167 59.8333,177.167 59.5,178.5C 58.7784,178.082 58.2784,177.416 58,176.5C 57.586,176.957 57.086,177.291 56.5,177.5C 53.5908,174.894 50.5908,173.227 47.5,172.5C 31.3099,164.559 23.9766,152.059 25.5,135C 26.1667,134.667 26.8333,134.333 27.5,134C 27.5,132.667 27.5,131.333 27.5,130C 29.6035,128.307 31.1035,126.14 32,123.5C 32.6667,124.833 33.3333,124.833 34,123.5C 34.3333,122.5 34.6667,121.5 35,120.5C 36,120.5 37,120.5 38,120.5C 38.3742,119.584 38.8742,118.75 39.5,118C 41.3289,117.727 42.8289,116.893 44,115.5C 45.016,116.634 45.6827,116.301 46,114.5C 46.414,114.957 46.914,115.291 47.5,115.5C 52.7728,114.925 57.9395,113.925 63,112.5C 67.3333,113.167 71.6667,113.833 76,114.5C 77.2682,114.384 78.6015,114.051 80,113.5C 86.1968,115.554 91.8634,117.221 97,118.5C 97.4207,122.58 96.5874,126.413 94.5,130C 94.8333,130.333 95.1667,130.667 95.5,131C 93.7449,133.93 92.5783,137.097 92,140.5C 84.2198,138.085 76.2198,136.752 68,136.5C 64.9906,136.963 62.1572,136.963 59.5,136.5C 57.739,137.035 56.4057,138.035 55.5,139.5 Z"/></g>
<g><path style="opacity:0.884" fill="#FFFFFF" d="M 157.5,136.5 C 157.188,143.083 156.522,149.583 155.5,156C 149.15,155.276 142.483,155.443 135.5,156.5C 134.293,169.801 134.293,182.967 135.5,196C 136.649,197.744 137.983,197.911 139.5,196.5C 140.192,197.025 140.692,197.692 141,198.5C 143.627,197.686 145.96,196.353 148,194.5C 149.008,194.982 150.175,195.148 151.5,195C 154.881,200.741 157.547,206.407 159.5,212C 153.757,218.287 146.591,221.787 138,222.5C 136.21,221.715 134.543,221.715 133,222.5C 130.763,221.944 128.763,220.944 127,219.5C 126.667,219.833 126.333,220.167 126,220.5C 123.656,217.989 121.156,215.656 118.5,213.5C 114.73,208.252 113.063,202.418 113.5,196C 112.833,194.667 112.167,193.333 111.5,192C 112.752,179.879 112.752,167.712 111.5,155.5C 109.208,155.244 107.041,155.577 105,156.5C 104.25,155.874 103.416,155.374 102.5,155C 101.206,148.753 101.373,142.253 103,135.5C 105.342,134.149 107.675,133.816 110,134.5C 111.261,134.241 112.261,133.574 113,132.5C 113.333,126.5 113.667,120.5 114,114.5C 115.147,115.458 116.147,115.125 117,113.5C 123.419,114.313 129.919,114.813 136.5,115C 136.685,120.708 136.685,126.541 136.5,132.5C 139.894,132.555 143.394,133.222 147,134.5C 151.013,132.595 154.513,133.262 157.5,136.5 Z"/></g>
<g><path style="opacity:0.895" fill="#FFFFFF" d="M 217.5,139.5 C 222.444,143.713 225.611,149.047 227,155.5C 227.831,162.856 227.665,170.189 226.5,177.5C 225.483,180.028 224.316,180.028 223,177.5C 220.667,178.167 218.333,178.833 216,179.5C 215.439,178.978 214.772,178.645 214,178.5C 207.198,179.497 200.364,180.33 193.5,181C 191.5,181.833 189.5,182.667 187.5,183.5C 187.575,187.941 189.575,191.608 193.5,194.5C 195.028,195.309 196.694,195.976 198.5,196.5C 200.257,196.993 202.091,197.327 204,197.5C 205.705,196.237 207.372,195.903 209,196.5C 211.908,194.423 214.574,192.756 217,191.5C 218.974,191.626 221.141,191.792 223.5,192C 225.5,193.324 227.167,194.991 228.5,197C 228.167,197.333 227.833,197.667 227.5,198C 229.533,200.731 231.199,203.731 232.5,207C 231.743,208.512 230.743,209.846 229.5,211C 222.273,215.026 215.106,218.859 208,222.5C 203.155,221.989 198.489,221.989 194,222.5C 190.519,221.561 187.185,220.228 184,218.5C 183.667,218.833 183.333,219.167 183,219.5C 174.055,214.126 167.555,205.96 163.5,195C 163.833,194.667 164.167,194.333 164.5,194C 160.926,183.053 160.926,172.22 164.5,161.5C 164.291,160.914 163.957,160.414 163.5,160C 165.167,157 166.833,154 168.5,151C 168.167,150.667 167.833,150.333 167.5,150C 172.055,143.637 177.888,138.804 185,135.5C 187.055,135.848 189.055,135.181 191,133.5C 196.667,133.5 202.333,133.5 208,133.5C 211.658,134.708 214.825,136.708 217.5,139.5 Z M 193.5,157.5 C 193.833,158.833 194.167,158.833 194.5,157.5C 196.367,156.112 198.533,155.445 201,155.5C 202.404,155.509 203.57,156.009 204.5,157C 203.359,157.741 203.359,158.575 204.5,159.5C 204.123,161.824 203.123,162.491 201.5,161.5C 200.808,162.025 200.308,162.692 200,163.5C 199.667,163.167 199.333,162.833 199,162.5C 196.539,163.218 194.039,163.885 191.5,164.5C 188.972,163.502 188.972,162.669 191.5,162C 191.043,161.586 190.709,161.086 190.5,160.5C 191.548,159.452 192.548,158.452 193.5,157.5 Z"/></g>
<g><path style="opacity:0.898" fill="#FFFFFF" d="M 260.5,133.5 C 264.278,134.4 265.611,136.567 264.5,140C 267.703,153.087 270.536,166.253 273,179.5C 274,180.167 275,180.833 276,181.5C 280.859,167.069 284.693,152.069 287.5,136.5C 288.949,135.383 290.616,134.716 292.5,134.5C 299.401,135.023 306.235,135.69 313,136.5C 314.557,135.795 315.723,136.461 316.5,138.5C 313.589,146.197 310.589,154.197 307.5,162.5C 307.709,163.086 308.043,163.586 308.5,164C 305.99,168.024 303.99,172.357 302.5,177C 303.634,178.016 303.301,178.683 301.5,179C 301.833,179.333 302.167,179.667 302.5,180C 301.023,181.884 299.69,183.884 298.5,186C 298.833,186.333 299.167,186.667 299.5,187C 293.793,198.202 288.793,209.035 284.5,219.5C 283.372,220.262 282.205,220.929 281,221.5C 276.667,220.167 272.333,220.167 268,221.5C 266.175,220.897 264.341,220.23 262.5,219.5C 262.032,217.866 261.032,216.7 259.5,216C 258.094,209.173 255.428,202.506 251.5,196C 251.833,195.667 252.167,195.333 252.5,195C 250.519,194.395 250.185,193.395 251.5,192C 245.827,177.909 241.327,162.742 238,146.5C 236.505,143.094 235.338,139.927 234.5,137C 236.366,134.799 238.532,134.299 241,135.5C 247.644,134.887 254.144,134.221 260.5,133.5 Z"/></g>
<g><path style="opacity:0.898" fill="#FFFFFF" d="M 342.5,221.5 C 338.116,219.471 333.783,217.138 329.5,214.5C 327.866,213.028 326.366,211.362 325,209.5C 324.667,209.833 324.333,210.167 324,210.5C 321.088,205.308 318.588,199.975 316.5,194.5C 317.692,193.434 317.359,192.601 315.5,192C 315.459,183.953 315.625,175.786 316,167.5C 317.496,151.372 325.663,140.538 340.5,135C 347.073,133.571 353.573,133.071 360,133.5C 361.46,135.422 363.127,136.089 365,135.5C 365.317,137.301 365.984,137.634 367,136.5C 373.391,141.25 377.724,147.583 380,155.5C 380.5,162.826 380.666,170.159 380.5,177.5C 376.253,177.884 372.086,178.551 368,179.5C 367.275,178.941 366.442,178.608 365.5,178.5C 362.525,179.139 359.525,179.639 356.5,180C 356,180.5 355.5,181 355,181.5C 350.824,180.005 346.658,180.672 342.5,183.5C 341.147,186.245 341.314,188.912 343,191.5C 345.728,194.647 348.728,196.647 352,197.5C 353.73,196.351 355.396,196.351 357,197.5C 357.928,195.665 359.094,195.332 360.5,196.5C 361.748,195.96 362.915,195.293 364,194.5C 365.873,195.089 367.54,194.422 369,192.5C 369.914,193.654 370.747,193.487 371.5,192C 373.5,191.333 375.5,191.333 377.5,192C 380.82,196.767 383.487,201.934 385.5,207.5C 384.469,208.7 383.635,210.034 383,211.5C 382.667,211.167 382.333,210.833 382,210.5C 379.3,212.159 376.633,214.492 374,217.5C 373.282,216.549 372.449,216.383 371.5,217C 372.34,218.666 371.84,218.833 370,217.5C 365.871,220.045 361.371,221.711 356.5,222.5C 352.004,222.435 347.337,222.102 342.5,221.5 Z M 343.5,163.5 C 344.833,163.167 344.833,162.833 343.5,162.5C 343.569,159.916 344.735,157.916 347,156.5C 347.333,156.833 347.667,157.167 348,157.5C 348.839,156.376 350.006,155.709 351.5,155.5C 353.204,156.068 354.704,156.068 356,155.5C 358.906,157.404 359.239,159.737 357,162.5C 356.667,162.167 356.333,161.833 356,161.5C 354.604,163.527 352.938,163.86 351,162.5C 348.442,163.955 345.942,164.288 343.5,163.5 Z"/></g>
<g><path style="opacity:0.898" fill="#FFFFFF" d="M 423.5,138.5 C 423.811,139.478 424.478,140.145 425.5,140.5C 428.094,138.76 430.594,137.093 433,135.5C 438.333,135.5 443.667,135.5 449,135.5C 453.772,138.212 458.272,142.045 462.5,147C 463.9,151.13 465.566,155.13 467.5,159C 467.834,172.004 467.834,184.671 467.5,197C 468,203.826 469.333,210.492 471.5,217C 472.048,218.596 471.382,219.763 469.5,220.5C 462.101,221.352 454.434,222.018 446.5,222.5C 444.097,221.935 442.43,220.435 441.5,218C 442.299,203.886 442.632,189.553 442.5,175C 442.076,170.67 440.743,166.67 438.5,163C 438.833,162.667 439.167,162.333 439.5,162C 433.666,157.212 428.666,158.045 424.5,164.5C 423.167,164.833 423.167,165.167 424.5,165.5C 421.793,170.722 420.46,176.389 420.5,182.5C 421.424,195.41 422.424,208.077 423.5,220.5C 421.533,220.261 419.699,220.594 418,221.5C 410.913,220.685 403.747,220.185 396.5,220C 395.257,218.846 394.257,217.512 393.5,216C 394.167,213.333 394.833,210.667 395.5,208C 395.518,184.658 395.518,161.158 395.5,137.5C 395.986,135.503 397.153,134.169 399,133.5C 405.943,134.708 412.61,134.708 419,133.5C 421.435,134.43 422.935,136.097 423.5,138.5 Z"/></g>
<g><path style="opacity:0.008" fill="#FFFFFF" d="M 157.5,135.5 C 158.833,136.167 158.833,136.167 157.5,135.5 Z"/></g>
<g><path style="opacity:0.004" fill="#FFFFFF" d="M 423.5,137.5 C 424.833,138.167 424.833,138.167 423.5,137.5 Z"/></g>
<g><path style="opacity:0.027" fill="#FFFFFF" d="M 217.5,138.5 C 218.833,139.167 218.833,139.167 217.5,138.5 Z"/></g>
<g><path style="opacity:0.016" fill="#FFFFFF" d="M 55.5,139.5 C 56.8333,140.167 56.8333,140.167 55.5,139.5 Z"/></g>
<g><path style="opacity:0.008" fill="#FFFFFF" d="M 265.5,139.5 C 266.833,140.167 266.833,140.167 265.5,139.5 Z"/></g>
<g><path style="opacity:0.004" fill="#FFFFFF" d="M 66.5,148.5 C 67.8333,149.167 67.8333,149.167 66.5,148.5 Z"/></g>
<g><path style="opacity:0.008" fill="#FFFFFF" d="M 109.5,156.5 C 110.833,157.167 110.833,157.167 109.5,156.5 Z"/></g>
<g><path style="opacity:0.024" fill="#FFFFFF" d="M 424.5,164.5 C 425.833,165.167 425.833,165.167 424.5,164.5 Z"/></g>
<g><path style="opacity:0.043" fill="#FFFFFF" d="M 47.5,172.5 C 46.8333,173.167 46.8333,173.167 47.5,172.5 Z"/></g>
<g><path style="opacity:0.004" fill="#FFFFFF" d="M 273.5,176.5 C 274.833,177.167 274.833,177.167 273.5,176.5 Z"/></g>
<g><path style="opacity:0.008" fill="#FFFFFF" d="M 59.5,178.5 C 59.8333,178.5 60.1667,178.5 60.5,178.5C 60.3147,179.17 59.9813,179.17 59.5,178.5 Z"/></g>
<g><path style="opacity:0.012" fill="#FFFFFF" d="M 274.5,178.5 C 275.833,179.167 275.833,179.167 274.5,178.5 Z"/></g>
<g><path style="opacity:0.004" fill="#FFFFFF" d="M 62.5,179.5 C 61.8333,180.167 61.8333,180.167 62.5,179.5 Z"/></g>
<g><path style="opacity:0.012" fill="#FFFFFF" d="M 64.5,180.5 C 63.8333,181.167 63.8333,181.167 64.5,180.5 Z"/></g>
<g><path style="opacity:0.012" fill="#FFFFFF" d="M 194.5,181.5 C 195.833,182.167 195.833,182.167 194.5,181.5 Z"/></g>
<g><path style="opacity:0.016" fill="#FFFFFF" d="M 67.5,182.5 C 67.8333,182.5 68.1667,182.5 68.5,182.5C 68.3147,183.17 67.9813,183.17 67.5,182.5 Z"/></g>
<g><path style="opacity:0.016" fill="#FFFFFF" d="M 193.5,193.5 C 194.833,194.167 194.833,194.167 193.5,193.5 Z"/></g>
<g><path style="opacity:0.004" fill="#FFFFFF" d="M 316.5,194.5 C 315.833,193.167 315.833,193.167 316.5,194.5 Z"/></g>
<g><path style="opacity:0.008" fill="#FFFFFF" d="M 198.5,195.5 C 199.833,196.167 199.833,196.167 198.5,195.5 Z"/></g>
<g><path style="opacity:0.004" fill="#FFFFFF" d="M 351.5,195.5 C 352.833,196.167 352.833,196.167 351.5,195.5 Z"/></g>
<g><path style="opacity:0.004" fill="#FFFFFF" d="M 118.5,213.5 C 117.833,214.167 117.833,214.167 118.5,213.5 Z"/></g>
<g><path style="opacity:0.008" fill="#FFFFFF" d="M 329.5,214.5 C 328.833,215.167 328.833,215.167 329.5,214.5 Z"/></g>
<g><path style="opacity:0.02" fill="#FFFFFF" d="M 469.5,220.5 C 470.833,221.167 470.833,221.167 469.5,220.5 Z"/></g>
<g><path style="opacity:0.012" fill="#FFFFFF" d="M 282.5,221.5 C 283.833,222.167 283.833,222.167 282.5,221.5 Z"/></g>
<g><path style="opacity:0.008" fill="#FFFFFF" d="M 342.5,221.5 C 341.833,222.167 341.833,222.167 342.5,221.5 Z"/></g>
<g><path style="opacity:0.012" fill="#FFFFFF" d="M 446.5,222.5 C 445.833,223.167 445.833,223.167 446.5,222.5 Z"/></g>
<g><path style="opacity:0.892" fill="#FFFFFF" d="M 108.5,384.5 C 108.754,368.921 109.087,353.255 109.5,337.5C 109.154,336.304 108.654,336.304 108,337.5C 107.207,333.577 107.374,329.744 108.5,326C 107.638,319.522 106.971,313.189 106.5,307C 115.031,306.238 123.697,305.405 132.5,304.5C 133.478,304.977 134.311,305.643 135,306.5C 135.108,330.237 134.608,354.071 133.5,378C 133.923,380.817 134.256,383.65 134.5,386.5C 133.771,390.572 132.438,394.739 130.5,399C 128.931,408.712 123.598,416.045 114.5,421C 107.808,421.831 101.142,421.664 94.5,420.5C 82.2534,415.024 77.0867,404.691 79,389.5C 85.0083,387.975 90.8416,386.975 96.5,386.5C 98.4211,386.86 100.088,387.694 101.5,389C 99.7283,392.524 100.895,395.357 105,397.5C 106.487,396.747 106.654,395.914 105.5,395C 107.519,391.794 108.519,388.294 108.5,384.5 Z"/></g>
<g><path style="opacity:0.846" fill="#FFFFFF" d="M 237.5,326.5 C 236.691,327.469 235.691,328.302 234.5,329C 234.833,329.333 235.167,329.667 235.5,330C 224.823,335.037 217.156,331.87 212.5,320.5C 213.949,313.938 217.449,309.604 223,307.5C 226.333,307.5 229.667,307.5 233,307.5C 240.722,311.607 242.222,317.941 237.5,326.5 Z"/></g>
<g><path style="opacity:0.02" fill="#FFFFFF" d="M 237.5,326.5 C 238.833,327.167 238.833,327.167 237.5,326.5 Z"/></g>
<g><path style="opacity:0.893" fill="#FFFFFF" d="M 284.5,419.5 C 284.196,418.85 283.863,418.183 283.5,417.5C 284.217,412.19 284.884,406.856 285.5,401.5C 284.69,399.174 285.023,396.841 286.5,394.5C 285.978,390.453 285.978,385.953 286.5,381C 286.917,375.109 285.917,369.609 283.5,364.5C 282.234,362.502 280.568,362.502 278.5,364.5C 277.975,365.192 277.308,365.692 276.5,366C 276.833,366.333 277.167,366.667 277.5,367C 276.707,368.085 276.04,369.252 275.5,370.5C 275.422,377.66 275.588,384.993 276,392.5C 276.927,395.786 277.093,398.952 276.5,402C 276.615,403.895 277.282,405.562 278.5,407C 278.292,410.325 277.959,413.658 277.5,417C 273.27,417.849 268.77,418.682 264,419.5C 262.331,418.834 260.831,418.834 259.5,419.5C 258.252,418.96 257.085,418.293 256,417.5C 255.667,404.833 255.333,392.167 255,379.5C 254.626,375.204 253.793,371.037 252.5,367C 252.833,366.667 253.167,366.333 253.5,366C 250.926,365.798 248.759,364.965 247,363.5C 244.605,365.944 242.438,368.61 240.5,371.5C 238.584,368.895 237.584,369.395 237.5,373C 236.94,377.815 236.607,382.648 236.5,387.5C 237.029,397.201 237.529,406.868 238,416.5C 236.324,417.061 234.991,418.061 234,419.5C 233.667,418.833 233.333,418.167 233,417.5C 231.434,416.939 230.101,417.606 229,419.5C 224.207,419.462 219.374,419.129 214.5,418.5C 213.955,392.951 214.455,367.284 216,341.5C 216.489,339.396 217.655,339.062 219.5,340.5C 225.024,339.593 230.357,338.926 235.5,338.5C 237.167,339.333 238.833,340.167 240.5,341C 239.655,342.922 239.655,345.088 240.5,347.5C 241.5,347.167 242.167,346.5 242.5,345.5C 245.48,342.999 247.98,340.666 250,338.5C 250.333,338.833 250.667,339.167 251,339.5C 255.409,336.029 259.909,336.196 264.5,340C 266.333,341.833 268.167,343.667 270,345.5C 277.442,337.169 286.275,336.336 296.5,343C 303.055,348.61 306.555,355.777 307,364.5C 307.387,375.196 306.887,385.863 305.5,396.5C 306.19,404.011 307.19,411.511 308.5,419C 308.333,419.5 308.167,420 308,420.5C 300.184,420.364 292.35,420.03 284.5,419.5 Z M 240.5,347.5 C 240.013,348.473 239.513,349.473 239,350.5C 238.275,348.843 238.775,347.843 240.5,347.5 Z M 238.5,367.5 C 237.088,362.503 237.255,357.17 239,351.5C 239.218,354.426 239.718,357.26 240.5,360C 239.833,360.333 239.167,360.667 238.5,361C 239.768,363.163 239.768,365.33 238.5,367.5 Z"/></g>
<g><path style="opacity:0.896" fill="#FFFFFF" d="M 382.5,350.5 C 383.662,351.678 384.662,352.845 385.5,354C 385.043,354.414 384.709,354.914 384.5,355.5C 385.735,362.78 387.068,369.947 388.5,377C 387.027,377.71 386.36,378.876 386.5,380.5C 381.352,379.926 376.518,380.593 372,382.5C 368.93,381.508 365.93,381.841 363,383.5C 362.586,383.043 362.086,382.709 361.5,382.5C 357.534,383.089 353.867,384.422 350.5,386.5C 349.585,387.328 348.919,388.328 348.5,389.5C 348.846,390.696 349.346,390.696 350,389.5C 350.333,391.167 350.667,392.833 351,394.5C 351.333,394.167 351.667,393.833 352,393.5C 353.165,395.728 354.665,397.061 356.5,397.5C 359.64,398.641 362.973,398.808 366.5,398C 368.848,397.654 370.681,396.487 372,394.5C 373.996,395.341 375.829,395.008 377.5,393.5C 378.222,393.082 378.722,392.416 379,391.5C 381.398,391.958 383.064,393.292 384,395.5C 385.666,394.66 385.833,395.16 384.5,397C 385.044,397.717 385.711,398.217 386.5,398.5C 386.328,399.492 386.662,400.158 387.5,400.5C 387.263,401.791 387.596,402.791 388.5,403.5C 389.89,405.169 390.223,406.836 389.5,408.5C 386.832,410.577 384.165,412.743 381.5,415C 377.372,416.564 373.372,418.398 369.5,420.5C 361.055,421.701 353.555,421.701 347,420.5C 340.132,416.87 334.465,412.537 330,407.5C 322.675,391.661 322.008,375.328 328,358.5C 333.057,348.656 339.723,342.656 348,340.5C 350.726,340.039 353.559,339.039 356.5,337.5C 359.185,338.177 362.018,338.177 365,337.5C 367.269,339.269 369.602,339.935 372,339.5C 375.762,343.085 379.262,346.752 382.5,350.5 Z M 351.5,364.5 C 353.105,363.994 353.439,363.327 352.5,362.5C 353.671,361.655 355.005,360.989 356.5,360.5C 359.867,358.153 362.867,358.819 365.5,362.5C 364.975,363.192 364.308,363.692 363.5,364C 363.833,364.333 364.167,364.667 364.5,365C 360.886,366.047 357.22,366.88 353.5,367.5C 350.971,367.35 350.305,366.35 351.5,364.5 Z"/></g>
<g><path style="opacity:0.883" fill="#FFFFFF" d="M 145.5,388.5 C 148.435,385.062 151.601,381.729 155,378.5C 155.333,378.833 155.667,379.167 156,379.5C 159.947,376.973 163.947,374.64 168,372.5C 169.535,371.767 171.368,371.767 173.5,372.5C 175.621,371.65 177.788,370.65 180,369.5C 180.254,366.805 180.421,364.305 180.5,362C 179.3,360.969 177.966,360.135 176.5,359.5C 173.563,359.388 170.897,359.888 168.5,361C 167.167,361.667 167.167,362.333 168.5,363C 166.179,363.94 164.012,365.44 162,367.5C 160.989,366.663 159.822,366.33 158.5,366.5C 158.167,365.167 157.833,365.167 157.5,366.5C 155.515,366.141 154.849,365.308 155.5,364C 151.363,362.363 148.363,359.53 146.5,355.5C 146.846,354.304 147.346,354.304 148,355.5C 149.177,351.606 151.677,348.272 155.5,345.5C 156.492,345.672 157.158,345.338 157.5,344.5C 171.052,336.808 183.385,337.141 194.5,345.5C 199.534,351.192 201.867,357.692 201.5,365C 202.167,365.667 202.833,366.333 203.5,367C 202.636,385.511 202.636,403.511 203.5,421C 195.5,421.667 187.5,421.667 179.5,421C 181.901,420.195 181.734,419.362 179,418.5C 177.984,419.634 177.317,419.301 177,417.5C 167.864,422.599 159.364,422.766 151.5,418C 141.295,409.873 139.295,400.04 145.5,388.5 Z M 179.5,396.5 C 178.167,396.833 178.167,397.167 179.5,397.5C 178.101,398.89 176.434,399.89 174.5,400.5C 171.898,401.969 169.731,401.302 168,398.5C 167.992,396.179 168.825,394.179 170.5,392.5C 170.833,391.5 171.5,390.833 172.5,390.5C 172.833,391.833 173.167,391.833 173.5,390.5C 174.678,389.338 175.845,388.338 177,387.5C 177.903,388.701 179.069,389.535 180.5,390C 180.457,392.139 180.123,394.306 179.5,396.5 Z"/></g>
<g><path style="opacity:0.87" fill="#FFFFFF" d="M 426.5,362.5 C 426.167,361.167 425.833,361.167 425.5,362.5C 424.72,365.252 425.887,367.252 429,368.5C 429.333,368.167 429.667,367.833 430,367.5C 434.291,369.525 438.791,370.859 443.5,371.5C 444.542,372.791 445.708,372.791 447,371.5C 448.487,374 450.654,375.666 453.5,376.5C 454.209,377.404 455.209,377.737 456.5,377.5C 458.873,382.273 460.873,387.273 462.5,392.5C 462.053,406.887 454.553,416.22 440,420.5C 438.16,419.167 437.66,419.334 438.5,421C 435.833,421.167 433.167,421.333 430.5,421.5C 426.584,420.046 420.584,419.046 412.5,418.5C 411.199,419.478 410.032,419.145 409,417.5C 408.228,417.645 407.561,417.978 407,418.5C 404.508,416.503 401.675,415.503 398.5,415.5C 398.867,409.828 399.367,404.161 400,398.5C 400.615,396.884 401.615,395.551 403,394.5C 403.317,396.301 403.984,396.634 405,395.5C 405.853,397.125 406.853,397.458 408,396.5C 411.736,398.018 415.57,399.352 419.5,400.5C 422.997,400.472 426.664,400.306 430.5,400C 432.246,399.529 433.913,398.862 435.5,398C 435.833,397 436.167,396 436.5,395C 434.741,393.992 433.574,392.492 433,390.5C 432.667,390.833 432.333,391.167 432,391.5C 430.89,389.963 429.39,389.297 427.5,389.5C 426.687,388.347 425.687,388.347 424.5,389.5C 423.304,389.154 423.304,388.654 424.5,388C 422.782,387.654 421.115,387.154 419.5,386.5C 418.914,386.709 418.414,387.043 418,387.5C 414.327,386.445 410.827,384.445 407.5,381.5C 407.167,380.167 406.833,380.167 406.5,381.5C 403.644,378.798 401.311,375.631 399.5,372C 399.545,368.865 399.545,365.698 399.5,362.5C 400.034,360.386 401.034,358.552 402.5,357C 401.366,355.984 401.699,355.317 403.5,355C 403.167,354.667 402.833,354.333 402.5,354C 404.736,351.657 407.069,349.49 409.5,347.5C 411.142,346.134 413.309,344.467 416,342.5C 416.333,342.833 416.667,343.167 417,343.5C 420.215,341.539 423.715,340.373 427.5,340C 434.452,339.654 441.285,339.488 448,339.5C 451.401,341.191 454.901,342.691 458.5,344C 460.513,345.791 460.513,347.125 458.5,348C 458.833,348.333 459.167,348.667 459.5,349C 457.106,354.409 454.939,359.909 453,365.5C 451.846,364.257 450.512,363.257 449,362.5C 446.129,363.322 443.796,363.322 442,362.5C 441.646,360.193 440.646,359.859 439,361.5C 436.6,360.956 434.267,360.289 432,359.5C 431.395,361.481 430.395,361.815 429,360.5C 428.292,361.381 427.458,362.047 426.5,362.5 Z"/></g>
<g><path style="opacity:0.027" fill="#FFFFFF" d="M 157.5,344.5 C 156.833,343.167 156.833,343.167 157.5,344.5 Z"/></g>
<g><path style="opacity:0.016" fill="#FFFFFF" d="M 155.5,345.5 C 154.833,344.167 154.833,344.167 155.5,345.5 Z"/></g>
<g><path style="opacity:0.006" fill="#FFFFFF" d="M 242.5,345.5 C 241.761,345.631 241.094,345.464 240.5,345C 241.437,344.308 242.103,344.475 242.5,345.5 Z"/></g>
<g><path style="opacity:0.012" fill="#FFFFFF" d="M 409.5,347.5 C 408.833,346.167 408.833,346.167 409.5,347.5 Z"/></g>
<g><path style="opacity:0.016" fill="#FFFFFF" d="M 382.5,349.5 C 383.833,350.167 383.833,350.167 382.5,349.5 Z"/></g>
<g><path style="opacity:0.024" fill="#FFFFFF" d="M 425.5,362.5 C 425.833,362.5 426.167,362.5 426.5,362.5C 426.315,363.17 425.981,363.17 425.5,362.5 Z"/></g>
<g><path style="opacity:0.004" fill="#FFFFFF" d="M 283.5,364.5 C 282.833,365.167 282.833,365.167 283.5,364.5 Z"/></g>
<g><path style="opacity:0.008" fill="#FFFFFF" d="M 157.5,366.5 C 157.833,366.5 158.167,366.5 158.5,366.5C 158.315,367.17 157.981,367.17 157.5,366.5 Z"/></g>
<g><path style="opacity:0.02" fill="#FFFFFF" d="M 443.5,370.5 C 444.833,371.167 444.833,371.167 443.5,370.5 Z"/></g>
<g><path style="opacity:0.012" fill="#FFFFFF" d="M 453.5,375.5 C 454.833,376.167 454.833,376.167 453.5,375.5 Z"/></g>
<g><path style="opacity:0.004" fill="#FFFFFF" d="M 383.5,381.5 C 384.833,382.167 384.833,382.167 383.5,381.5 Z"/></g>
<g><path style="opacity:0.008" fill="#FFFFFF" d="M 406.5,381.5 C 406.833,381.5 407.167,381.5 407.5,381.5C 407.315,382.17 406.981,382.17 406.5,381.5 Z"/></g>
<g><path style="opacity:0.012" fill="#FFFFFF" d="M 108.5,384.5 C 107.833,383.167 107.833,383.167 108.5,384.5 Z"/></g>
<g><path style="opacity:0.016" fill="#FFFFFF" d="M 145.5,388.5 C 144.833,387.167 144.833,387.167 145.5,388.5 Z"/></g>
<g><path style="opacity:0.012" fill="#FFFFFF" d="M 427.5,389.5 C 426.833,390.167 426.833,390.167 427.5,389.5 Z"/></g>
<g><path style="opacity:0.004" fill="#FFFFFF" d="M 377.5,393.5 C 376.833,392.167 376.833,392.167 377.5,393.5 Z"/></g>
<g><path style="opacity:0.008" fill="#FFFFFF" d="M 356.5,396.5 C 357.833,397.167 357.833,397.167 356.5,396.5 Z"/></g>
<g><path style="opacity:0.012" fill="#FFFFFF" d="M 386.5,397.5 C 387.833,398.167 387.833,398.167 386.5,397.5 Z"/></g>
<g><path style="opacity:0.008" fill="#FFFFFF" d="M 387.5,399.5 C 388.833,400.167 388.833,400.167 387.5,399.5 Z"/></g>
<g><path style="opacity:0.006" fill="#FFFFFF" d="M 388.5,403.5 C 388.369,402.761 388.536,402.094 389,401.5C 389.692,402.437 389.525,403.103 388.5,403.5 Z"/></g>
<g><path style="opacity:0.02" fill="#FFFFFF" d="M 389.5,408.5 C 390.833,409.167 390.833,409.167 389.5,408.5 Z"/></g>
<g><path style="opacity:0.004" fill="#FFFFFF" d="M 212.5,416.5 C 213.833,417.167 213.833,417.167 212.5,416.5 Z"/></g>
<g><path style="opacity:0.008" fill="#FFFFFF" d="M 175.5,419.5 C 176.833,420.167 176.833,420.167 175.5,419.5 Z"/></g>
<g><path style="opacity:0.008" fill="#FFFFFF" d="M 256.5,419.5 C 257.833,420.167 257.833,420.167 256.5,419.5 Z"/></g>
<g><path style="opacity:0.016" fill="#FFFFFF" d="M 284.5,419.5 C 283.833,420.167 283.833,420.167 284.5,419.5 Z"/></g>
<g><path style="opacity:0.013" fill="#FFFFFF" d="M 285.5,421.5 C 286.251,420.427 287.251,420.26 288.5,421C 287.552,421.483 286.552,421.649 285.5,421.5 Z"/></g>
</svg>
